<?xml version="1.0" encoding="UTF-8" standalone="no"?>
<svg
   xmlns:dc="http://purl.org/dc/elements/1.1/"
   xmlns:cc="http://creativecommons.org/ns#"
   xmlns:rdf="http://www.w3.org/1999/02/22-rdf-syntax-ns#"
   xmlns:svg="http://www.w3.org/2000/svg"
   xmlns="http://www.w3.org/2000/svg"
   viewBox="0 0 421.81332 368.98666"
   height="368.98666"
   width="421.81332"
   xml:space="preserve"
   id="svg2"
   version="1.1"><metadata
     id="metadata8"><rdf:RDF><cc:Work
         rdf:about=""><dc:format>image/svg+xml</dc:format><dc:type
           rdf:resource="http://purl.org/dc/dcmitype/StillImage" /></cc:Work></rdf:RDF></metadata><defs
     id="defs6" /><g
     transform="matrix(1.3333333,0,0,-1.3333333,0,368.98667)"
     id="g10"><g
       transform="scale(0.1)"
       id="g12"><path
         id="path14"
         style="fill:#100f0d;fill-opacity:1;fill-rule:evenodd;stroke:none"
         d="m 1912.98,1808.29 c -0.82,-24.65 -4.99,-49.15 -7.56,-73.62 -0.46,-5.41 0.19,-10.91 0.32,-16.2 0.55,-17.6 2.11,-35.29 1.47,-52.89 -1.88,-49.43 -5.5,-98.77 -6.78,-148.29 -1.24,-50.91 -0.97,-102.01 -0.37,-153.02 0.41,-43.77 2.43,-87.44 3.44,-131.16 1.46,-62.61 -1.98,-124.57 -15.45,-185.99 -6.32,-28.49 -4.21,-58.839 -11.55,-86.71 -8.71,-32.539 -22.22,-64.058 -36.11,-94.859 -22.73,-50.27 -63.39,-86.711 -100.64,-125.762 -16.92,-17.687 -36.12,-28.141 -62.43,-29.238 -23.5,-1.012 -47.61,-8.43 -69.47,-17.602 -36.62,-15.117 -72.73,-5.308 -108.94,-3.199 -29.6,1.742 -59.08,3.801 -88.49,7.332 -29.34,3.617 -58.49,8.797 -87.45,14.387 -11.64,2.383 -22.59,7.472 -33.59,11.91 -19.34,7.93 -28.1,25.301 -40.1,41.07 -34.06,44.449 -56.42,94.41 -77.37,145.141 -10.54,25.441 -14.57,53.711 -21.26,80.89 -5.27,21.17 -12.93,42.26 -14.89,63.89 -3.53,37.03 -4.36,74.33 -4.72,111.69 -0.37,36.98 1.09,74.01 2.06,110.95 0.55,18.06 5.45,22.73 22.68,30.61 26.63,12.42 53.17,10.36 80.07,12.88 33.22,2.98 47.39,22.6 41.61,55.48 -5.96,32.95 -27.31,49.79 -65.35,51.86 -15.9,0.91 -31.67,2.43 -47.39,4.07 -13.52,1.42 -22.55,7.2 -22.69,22.64 -0.41,32.47 -1.69,65.06 -1.79,97.65 0,7.17 5.23,14.52 4.68,21.6 -0.87,13.59 -3.3,27.27 -6.64,40.59 -4.08,17.02 -1.29,32.85 2.24,49.7 4.13,19.75 4.77,40.42 4.95,60.61 0.37,52.98 0.55,106.03 -0.96,159.1 -0.46,17.78 -11.37,36.32 -8.21,52.77 3.58,18.63 2.94,35.38 -1.19,52.79 -4.21,17.88 -9.48,35.66 -13.47,53.53 -2.06,9.58 -2.34,19.71 -2.89,29.61 -0.82,18.31 -1.05,36.58 -2.25,54.84 -0.54,9.37 -1.41,20 8.58,22.78 5.82,1.69 14.48,-3.26 20.85,-6.97 37.72,-21.61 58.06,-59.01 82.91,-92.35 20.94,-27.73 41.75,-55.93 64.07,-82.57 12.23,-14.61 27.81,-26.25 41.97,-39.29 5.69,-5.3 13.62,-9.76 16.46,-16.48 10.17,-22.71 26.95,-39.27 44.73,-55.66 7.42,-6.78 12.19,-16.66 18.7,-24.68 28.18,-34.8 54.76,-71.03 85.43,-103.41 18.37,-19.37 45.83,-26.35 72.91,-24.2 8.57,0.71 17.69,9.39 24.19,16.47 5.28,5.6 6.69,14.51 9.86,21.89 4.3,34.81 35.48,45.97 58.39,62.44 22.22,16.09 40.24,33.81 55.08,56.79 10.08,15.53 27.5,26.33 41.53,39.19 5.63,5.03 13.97,9.02 16.03,15.16 10.23,32.03 36.58,52.8 53.81,79.79 14.99,23.28 28.78,47.39 43.21,71.13 3.54,5.86 6.7,12.28 11.28,17.42 3.3,3.61 9.67,8.38 12.92,7.33 4.5,-1.49 9.45,-7.61 10.32,-12.47 2.34,-12.56 3.07,-25.6 3.35,-38.45 0.73,-33.04 1.41,-66.27 1.28,-99.43 0,-44.57 0.13,-89.07 -1.38,-133.48 z m 119.48,360.73 c 0.37,9.12 -3.39,18.44 -4.99,27.64 -2.21,12.66 -5.09,25.34 -5.87,38.08 -0.64,13.7 1.24,27.56 1.33,41.34 0,43.74 -17.78,48.32 -57.06,59.85 -9.12,2.71 -22.18,-0.94 -30.8,-6.23 -11.27,-6.63 -21.12,-16.78 -29.24,-27.18 -35.01,-44.77 -68.83,-90.49 -103.8,-135.17 -15.86,-20.31 -34.05,-38.64 -50.1,-58.73 -17.17,-21.71 -31.84,-45.53 -49.72,-66.66 -18.37,-21.89 -39.92,-41.25 -59.21,-62.66 -27.32,-30.63 -53.67,-62.19 -80.8,-93.01 -14.98,-17.02 -28.92,-17.3 -45.96,-1.67 -5.05,4.74 -9.4,10.15 -13.98,15.47 -14.67,16.84 -31.67,32.29 -42.9,51.1 -8.94,14.99 -17.78,28.27 -32.49,37.79 -9.4,6.07 -22.5,12.1 -25.48,20.94 -10,29.9 -24.71,56.24 -43.5,81.01 -43.86,58 -89.46,113.84 -150.55,155.18 -30.8,20.85 -61.13,42.37 -96.33,55.66 -10.32,4 -20.39,8.75 -30.07,14.13 -17.78,9.81 -32.86,11.67 -45.6,-1.46 -2.06,-4.68 -4.03,-9.33 -6,-13.87 -2.57,-23.94 -0.28,-47.2 8.52,-69.91 1.84,-5.13 0.88,-11.75 0.23,-17.71 -2.61,-22.99 -5.27,-45.97 -8.61,-68.98 -1.42,-9.76 -4.08,-19.27 -6.28,-28.93 -1.1,-5.33 -3.03,-10.52 -3.21,-15.84 -1.38,-46.91 -3.39,-93.75 -3.62,-140.68 -0.23,-41.04 1.55,-82.08 2.47,-123.23 0.14,-5.96 1.15,-12.29 -0.55,-17.67 -9.03,-29.45 -2.88,-59.12 -2.52,-88.73 0.09,-15.08 -3.07,-30.16 -3.89,-45.32 -0.46,-8.66 0.27,-17.42 1.1,-26.17 1.28,-13.13 4.44,-26.36 4.26,-39.57 -0.14,-27.46 -1.2,-55.09 -3.62,-82.57 -1.74,-19.18 -2.75,-37.69 -1.1,-57.36 1.51,-15.9 -8.2,-33.13 -14.805,-49.06 -1.652,-3.8 -10.906,-6.41 -16.594,-6.6 -20.805,-0.48 -42.113,3.19 -62.32,-0.29 -26.172,-4.54 -52.246,-12.56 -76.723,-22.89 -16.133,-6.7 -13.152,-47.89 3.485,-63.21 18.464,-17.14 42.39,-22.63 66.312,-27.08 18.516,-3.53 36.895,-4.76 55.641,2.34 18.285,6.87 39.504,-5.32 36.524,-31.12 -3.81,-34.69 0.28,-70.35 0.82,-105.54 0.23,-11.93 -0.04,-23.93 -0.36,-35.84 -0.05,-6.42 -1.19,-12.84 -0.64,-19.16 2.24,-26.86 1.78,-54.17 8.2,-80.11 6.97,-29.01 13.57,-57.61 14.35,-87.59 0.18,-7.93 6.59,-15.621 9.57,-23.59 4.36,-12.519 7.61,-25.578 12.65,-37.781 8.66,-21.168 16.59,-42.981 27.82,-62.688 22.41,-38.953 45.83,-77.269 70.58,-114.519 25.25,-37.82 55.73,-70.813 96.29,-93.18 1.33,-0.73 2.1,-2.793 3.07,-4.39 13.01,-5.512 25.94,-10.922 38.86,-16.372 1.42,0.411 3.12,1.602 4.13,1.11 22.73,-9.961 46.56,-12.93 71.12,-14.078 10.04,-0.461 21.04,-6.051 29.43,-12.282 23.05,-17.05 46.52,-19.441 70.26,-3.21 19.29,12.921 36.06,14.121 56.05,0.46 24.56,-16.769 52.24,-7.929 78.59,-3.671 9.03,1.433 18.47,5.14 26.03,10.363 15.77,10.637 32.77,14.437 51.1,13.019 40.15,-2.98 73.01,15.579 103.17,37.848 25.52,18.981 49.22,40.703 71.4,63.43 20.85,21.453 39.73,45.191 57.61,69.301 16.95,22.871 31.39,47.609 46.92,71.582 4,9.168 7.93,18.507 11.83,27.73 -0.09,2.52 -0.64,4.988 -0.09,7.238 5.77,23.551 13.2,46.75 17.6,70.442 7.97,43.359 11.23,87.628 21.95,130.068 14.07,55.87 4.95,112.56 12.79,168.33 0.41,3.25 -1.79,6.78 -1.79,10.31 0.55,31.86 -1.1,64.07 2.7,95.61 3.85,31.21 7.52,61.66 3.03,93.1 -3.53,25.89 -4.27,52.12 -6.14,78.3 -0.87,12.64 -1.75,25.23 -2.25,37.87 -0.13,5.32 0.69,10.73 1.56,16.11 1.65,11.73 4.35,23.26 5.08,34.99 1.2,19.85 -3.34,41.36 3.08,58.94 8.56,23.74 11.08,47.09 12.42,71.4 1.47,30.71 4.26,61.25 5.64,91.99 0.49,10.22 -2.39,20.76 -2.52,31.09 -0.24,32.47 3.84,65.54 -0.83,97.27 -7.65,51.77 -7.65,102.11 7.11,152.48 1.87,6.62 2.11,16.29 -1.38,21.31 -9.07,13.13 -8.9,26.74 -8.39,41.34" /><path
         id="path16"
         style="fill:#100f0d;fill-opacity:1;fill-rule:evenodd;stroke:none"
         d="m 1897.17,2551.72 c 2.98,-0.66 5.68,-2.13 8.57,-3.16 10.08,-3.37 19.8,-7.08 29.97,-9.88 8.12,-2.22 16.27,-4.08 24.57,-4.74 10.03,-0.67 20.31,-0.76 30.16,1.03 8.1,1.49 15.85,5.48 23.28,9.3 7.74,3.99 15.99,7.91 22.13,13.96 28.96,28.39 45.37,61.91 38.22,103.81 -0.95,5.76 -1.05,11.43 -1.97,17.11 -4.39,24.2 -11.13,47.21 -31.25,63.68 -4.08,3.19 -7.11,7.54 -10.55,11.46 -5.67,2.4 -11.35,4.84 -17.14,7.26 -12.92,1.86 -25.98,3.53 -38.9,5.59 -24.93,3.81 -76.36,-30.91 -83.46,-55.68 -2.57,-8.94 -7.61,-17.05 -11.96,-25.21 -3.25,-6.14 -8.11,-11.36 -10.81,-17.62 -10.09,-24.56 -11.37,-50.52 -9.12,-76.33 2.14,-22.8 16.08,-35.93 38.26,-40.58" /><path
         id="path18"
         style="fill:#100f0d;fill-opacity:1;fill-rule:nonzero;stroke:none"
         d="M 13.6133,38.5117 C 32.0352,39.332 41.2461,49.4102 41.2461,68.6719 V 206.242 H 82.6328 L 82.4961,54.9219 c 0,-16.4102 -5.043,-29.711 -15.1289,-39.793 C 57.2852,5.05078 44.0859,0 27.7734,0 H 0 v 38.5117 h 13.6133" /><path
         id="path20"
         style="fill:#100f0d;fill-opacity:1;fill-rule:nonzero;stroke:none"
         d="m 230.98,38.5117 c 18.243,0 33.09,6.2266 44.547,18.5977 11.461,12.3828 17.188,27.6797 17.188,46.0196 0,18.332 -5.727,33.73 -17.188,46.101 -11.457,12.372 -26.394,18.52 -44.82,18.52 -18.242,0 -33.09,-6.148 -44.547,-18.52 -11.457,-12.371 -17.183,-27.769 -17.183,-46.101 0,-18.3399 5.726,-33.6368 17.183,-46.0196 11.457,-12.3711 26.399,-18.5977 44.82,-18.5977 z m -73.691,-8.8515 c -19.707,19.75 -29.559,44.2187 -29.559,73.4688 0,29.32 9.852,53.891 29.559,73.601 19.707,19.711 44.227,29.512 73.555,29.512 29.332,0 53.851,-9.801 73.558,-29.512 19.707,-19.71 29.563,-44.281 29.563,-73.601 0,-29.3399 -9.856,-53.8087 -29.563,-73.5196 C 284.695,9.91016 260.176,0 230.844,0 201.516,0 176.996,9.91016 157.289,29.6602" /><path
         id="path22"
         style="fill:#100f0d;fill-opacity:1;fill-rule:nonzero;stroke:none"
         d="m 375.898,0 v 206.242 h 41.247 v -82.5 h 96.101 v 82.688 h 41.25 V 0.191406 L 513.246,0 V 85.25 H 417.145 V 0 h -41.247" /><path
         id="path24"
         style="fill:#100f0d;fill-opacity:1;fill-rule:nonzero;stroke:none"
         d="M 703.621,151.242 672.273,72.8711 h 61.875 z M 599.41,0 681.902,206.242 h 41.246 L 805.508,0.191406 761.645,0 749.273,31.6289 H 655.781 L 643.402,0 H 599.41" /><path
         id="path26"
         style="fill:#100f0d;fill-opacity:1;fill-rule:nonzero;stroke:none"
         d="m 847.578,0 v 206.242 h 13.75 L 990.566,77.0117 V 206.242 h 41.244 V 0 h -15.12 L 888.824,127.871 V 0 h -41.246" /><path
         id="path28"
         style="fill:#100f0d;fill-opacity:1;fill-rule:nonzero;stroke:none"
         d="m 1085.84,0 v 206.242 h 13.75 L 1228.84,77.0117 V 206.242 h 41.24 V 0 h -15.12 L 1127.09,127.871 V 0 h -41.25" /><path
         id="path30"
         style="fill:#100f0d;fill-opacity:1;fill-rule:nonzero;stroke:none"
         d="m 1417.47,151.242 -31.35,-78.3709 h 61.87 z M 1313.25,0 l 82.5,206.242 h 41.24 L 1519.35,0.191406 1475.49,0 1463.12,31.6289 h -93.5 L 1357.25,0 h -44" /><path
         id="path32"
         style="fill:#100f0d;fill-opacity:1;fill-rule:nonzero;stroke:none"
         d="m 1668.9,0 v 206.242 h 13.75 l 89.36,-101.742 89.5,101.742 h 13.75 V 0 h -41.25 l -0.13,119.621 -61.87,-68.7421 -61.87,68.7421 V 0 h -41.24" /><path
         id="path34"
         style="fill:#100f0d;fill-opacity:1;fill-rule:nonzero;stroke:none"
         d="m 1927.1,0 v 206.152 l 151.51,0.09 V 167.75 h -110.26 v -44.008 h 82.63 V 85.4297 h -82.63 v -46.918 h 109.99 V 0 H 1927.1" /><path
         id="path36"
         style="fill:#100f0d;fill-opacity:1;fill-rule:nonzero;stroke:none"
         d="M 2299.7,206.242 V 167.75 h -68.75 V 0 h -41.24 v 167.75 h -68.75 v 38.492 h 178.74" /><path
         id="path38"
         style="fill:#100f0d;fill-opacity:1;fill-rule:nonzero;stroke:none"
         d="m 2453.22,199.371 c 10.55,-4.582 20.4,-11.461 29.56,-20.629 l -27.5,-27.5 c -9.16,10.996 -21.99,16.508 -38.49,16.508 -16.5,0 -27.04,-3.852 -31.62,-11.641 -4.58,-7.8 -4.58,-14.488 0,-19.98 4.58,-5.508 15.12,-9.629 31.62,-12.387 17.42,-1.82 33.23,-7.512 47.44,-17.14 14.2,-9.6098 21.31,-25.0122 21.31,-46.102 0,-16.4883 -7.61,-30.6992 -22.74,-42.6211 C 2447.59,5.96875 2429.94,0 2409.78,0 c -19.15,0 -35.15,2.76172 -47.98,8.26172 -12.84,5.48828 -23.84,12.82808 -33,21.99998 l 27.5,27.5 c 9.16,-11.0117 24.74,-17.4219 46.74,-19.25 18.34,0 29.79,3.9297 34.28,11.7305 4.58,7.7891 4.58,15.5664 0,23.3672 -4.49,7.789 -15.94,12.5625 -34.28,14.3906 -16.5,1.8398 -31.62,6.8789 -45.37,15.129 -13.75,8.242 -20.62,22.453 -20.62,42.621 0,18.242 7.78,32.91 23.46,43.949 15.58,11.051 31.67,16.543 48.17,16.543 19.15,0 34.01,-2.293 44.54,-6.871" /><path
         id="path40"
         style="fill:#100f0d;fill-opacity:1;fill-rule:nonzero;stroke:none"
         d="m 2627.01,151.242 -31.35,-78.3709 h 61.88 z M 2522.79,0 l 82.5,206.242 h 41.24 L 2728.89,0.191406 2685.03,0 2672.66,31.6289 h -93.49 L 2566.79,0 h -44" /><path
         id="path42"
         style="fill:#100f0d;fill-opacity:1;fill-rule:nonzero;stroke:none"
         d="M 2812.63,206.242 V 38.5117 h 109.99 V 0 h -151.24 v 206.242 h 41.25" /><path
         id="path44"
         style="fill:#100f0d;fill-opacity:1;fill-rule:nonzero;stroke:none"
         d="m 3060.65,38.5117 c 18.25,0 33.09,6.2266 44.55,18.5977 11.46,12.3828 17.18,27.6797 17.18,46.0196 0,18.332 -5.72,33.73 -17.18,46.101 -11.46,12.372 -26.4,18.52 -44.82,18.52 -18.24,0 -33.09,-6.148 -44.55,-18.52 -11.45,-12.371 -17.19,-27.769 -17.19,-46.101 0,-18.3399 5.74,-33.6368 17.19,-46.0196 11.46,-12.3711 26.4,-18.5977 44.82,-18.5977 z m -73.69,-8.8515 c -19.7,19.75 -29.56,44.2187 -29.56,73.4688 0,29.32 9.86,53.891 29.56,73.601 19.71,19.711 44.22,29.512 73.56,29.512 29.32,0 53.85,-9.801 73.55,-29.512 19.71,-19.71 29.56,-44.281 29.56,-73.601 0,-29.3399 -9.85,-53.8087 -29.56,-73.5196 C 3114.37,9.91016 3089.84,0 3060.52,0 c -29.34,0 -53.85,9.91016 -73.56,29.6602" /></g></g></svg>